# xmcd
#
# Track frame offsets:
# 180
# 17627
# 31802
# 48445
# 69132
# 84540
# 100957
# 115995
# 129047
# 148305
#
# Disc length: 2255 seconds
#
#
# Revision: 0
# Processed by: cddbd v1.5.1PL0 Copyright (c) Steve Scherf et al.
# Submitted via: FreeRIP 2.91 
#
DISCID=7c08cd0a
DTITLE=Gordon Walker - When God's Involved
DYEAR=2001
DGENRE=Contemporary Christian
TTITLE0=When Things Are Meant To Be
TTITLE1=It's Not What Jesus Did
TTITLE2=The Things That Unite Us
TTITLE3=His Voice Is Real
TTITLE4=Believing is Seeing
TTITLE5=All You Want To Be
TTITLE6=Workin' Class
TTITLE7=For the Sake of Love
TTITLE8=When God's Involved
TTITLE9=If the Truth Were Known
EXTD=
EXTT0=
EXTT1=
EXTT2=
EXTT3=
EXTT4=
EXTT5=
EXTT6=
EXTT7=
EXTT8=
EXTT9=
PLAYORDER=
